# xmcd CD database file
#
# Track frame offsets:
#	150
#	17060
#	28335
#	40097
#	54810
#	67740
#	80420
#	89870
#	102437
#	122492
#	134500
#	153242
#	172987
#	183482
#	199112
#	208555
#	223207
#	242657
#	254425
#	280052
#	305522
#
# Disc length: 4440 seconds
#
# Revision: 1
# Processed by: cddbd v1.5.2PL0 Copyright (c) Steve Scherf et al.
# Submitted via: CDex 1.70beta2
#
DISCID=29115615
DTITLE=Various Artist - BEST HIT S.K.A.
DYEAR=2004
DGENRE=Ska
TTITLE0=LAX ALEX CONTRAX/Ghostbusters
TTITLE1=ALMIGHTY BOMB JACK/We Will Rock You
TTITLE2=BUSTERS/We Are The Champion
TTITLE3=DISPORT/Girls Just Want To Have Fun
TTITLE4=QUICK STEPS/Take On Me
TTITLE5=QUICK STEPS/Venus
TTITLE6=ONE TRACK MIND/Manic Mondey
TTITLE7=MU330/Vacation
TTITLE8=STEPxSTEP/Don't Worrt Be Happy
TTITLE9=ROLLINGS/New Era
TTITLE10=STEPxSTEP/Brand New Cadllac
TTITLE11=SKA DADDYZ/Hotel California
TTITLE12=CHECKERED CABS/La Bamba
TTITLE13=SMOKE LIKE A FISH/Smoke On the Water
TTITLE14=BIM SKALA BIM/Sunshine Of Your Love
TTITLE15=SKANDALOUS ALL-STARS/Anarchy In The UK
TTITLE16=THE SILVER SONICS/Theme from Shaft
TTITLE17=CHECKERED CABS/Can't Hurry Love
TTITLE18=SKANDALOUS ALL-STARS/Higher Ground
TTITLE19=/Someting
TTITLE20=CCCD Data Track
EXTD=YEAR: 2004
EXTT0=
EXTT1=
EXTT2=
EXTT3=
EXTT4=
EXTT5=
EXTT6=
EXTT7=
EXTT8=
EXTT9=
EXTT10=
EXTT11=
EXTT12=
EXTT13=
EXTT14=
EXTT15=
EXTT16=
EXTT17=
EXTT18=
EXTT19=
EXTT20=
PLAYORDER=
